<svg width="45" height="44" viewBox="0 0 45 44" fill="none" xmlns="http://www.w3.org/2000/svg">
<path d="M30.7891 26.0775L30.789 26.0777L30.2971 27.5843L28.8565 28.2354L28.8563 28.2354L27.1689 28.992L25.6932 27.6348L29.8499 23.0961L31.3261 24.4537L30.7891 26.0775Z" fill="black" stroke="#0A2238" stroke-width="0.128755"/>
<path d="M10.2335 10.7587L10.2373 10.7802L10.2534 10.795L26.2976 25.532L26.348 25.5783L26.3911 25.5252L27.0584 24.7045L27.0966 24.6575L27.052 24.6165L10.0411 8.99046L9.90137 8.86215L9.93409 9.04898L10.2335 10.7587ZM28.5607 23.8699L26.347 26.2772L9.70173 10.9874L9.0609 8.04104L11.914 8.57882L28.5607 23.8699Z" fill="black" stroke="#0A2238" stroke-width="0.128755"/>
<path d="M37.1545 34.554C37.0261 34.4359 36.9723 34.2925 36.9743 34.1564C36.9788 34.0709 37.0143 33.9838 37.0733 33.9196C37.1323 33.8554 37.2162 33.8127 37.301 33.8012C37.4372 33.7877 37.5844 33.8299 37.7029 33.9388C37.9 34.1201 37.9295 34.3977 37.7831 34.5744C37.6373 34.7314 37.3515 34.7352 37.1545 34.554Z" fill="black" stroke="#0A2238" stroke-width="0.128755"/>
<path d="M38.0605 32.9033L38.1079 32.9469L38.1515 32.8995L38.7354 32.2645L39.759 33.2058L36.5866 36.6555L35.563 35.7143L36.1557 35.0698L36.1992 35.0224L36.1519 34.9788L35.2705 34.1683L37.1792 32.0928L38.0605 32.9033ZM36.8458 34.1512L36.8458 34.1512L36.8457 34.1532C36.8428 34.326 36.9114 34.5053 37.058 34.6402C37.3053 34.8676 37.6751 34.8821 37.879 34.6605L37.879 34.6605L37.881 34.6582C38.0806 34.4193 38.0285 34.0633 37.7901 33.8441C37.6435 33.7092 37.4591 33.6559 37.2871 33.6733L37.2871 33.6732L37.2851 33.6735C37.1708 33.6887 37.0588 33.7453 36.9786 33.8325C36.8985 33.9197 36.8514 34.0361 36.8458 34.1512Z" fill="black" stroke="#0A2238" stroke-width="0.128755"/>
<path d="M30.6554 28.0518L30.6812 28.0401L30.69 28.0132L31.1597 26.5747L32.4413 27.7533L32.4413 27.7533L32.4417 27.7537L33.3499 28.5722L31.4412 30.6477L30.5421 29.8375L30.5418 29.8373L29.2775 28.6746L30.6554 28.0518Z" fill="black" stroke="#0A2238" stroke-width="0.128755"/>
<path d="M32.588 31.7023L31.7272 30.9265L33.6442 28.8419L34.4971 29.6263L32.588 31.7023Z" fill="black" stroke="#0A2238" stroke-width="0.128755"/>
<path d="M33.7921 32.8086L32.9484 32.0327L34.848 29.9489L35.7008 30.7331L33.7921 32.8086Z" fill="black" stroke="#0A2238" stroke-width="0.128755"/>
<path d="M34.1523 33.1398L36.0609 31.0643L36.9139 31.8487L35.0052 33.9242L34.1523 33.1398Z" fill="black" stroke="#0A2238" stroke-width="0.128755"/>
<path d="M14.9153 25.9055L14.4697 24.2546L16.0193 22.9813L19.9265 27.7364L18.3775 29.0092L16.7349 28.1599L16.7347 28.1598L15.3324 27.4294L14.9154 25.9058L14.9153 25.9055Z" fill="black" stroke="#0A2238" stroke-width="0.128755"/>
<path d="M19.3472 25.5912L19.3873 25.6466L19.4401 25.6032L36.2803 11.7826L36.2972 11.7688L36.3022 11.7475L36.6963 10.0571L36.7394 9.8724L36.5928 9.99273L18.7379 24.647L18.6911 24.6855L18.7266 24.7346L19.3472 25.5912ZM17.2731 23.8176L34.7457 9.47741L37.6243 9.09937L36.8204 12.0054L19.3493 26.3444L17.2731 23.8176Z" fill="black" stroke="#0A2238" stroke-width="0.128755"/>
<path d="M8.20582 33.3677C8.2612 33.4351 8.29178 33.524 8.29144 33.6096C8.28585 33.7449 8.21482 33.8935 8.08937 33.9966C7.88265 34.1665 7.59745 34.1468 7.46069 33.9819C7.32437 33.7974 7.36927 33.5218 7.57618 33.3518C7.70048 33.2496 7.84981 33.2157 7.9851 33.2368C8.06911 33.253 8.15045 33.3003 8.20582 33.3677Z" fill="black" stroke="#0A2238" stroke-width="0.128755"/>
<path d="M9.07507 34.4865L9.02533 34.5274L9.0662 34.5771L9.62204 35.2536L8.54766 36.1364L5.5723 32.5153L6.64668 31.6325L7.19435 32.299L7.23522 32.3488L7.28496 32.3079L8.21012 31.5477L10.0002 33.7263L9.07507 34.4865ZM8.00814 33.1101L8.00815 33.1101L8.00612 33.1098C7.83538 33.0829 7.64831 33.1258 7.49438 33.2523C7.23484 33.4656 7.16902 33.8298 7.36019 34.0625C7.5602 34.3059 7.92239 34.3005 8.181 34.088C8.33493 33.9615 8.41338 33.7863 8.42008 33.6136L8.42012 33.6136L8.42013 33.6115C8.42093 33.4963 8.38044 33.3775 8.30525 33.286C8.23006 33.1945 8.12135 33.1317 8.00814 33.1101Z" fill="black" stroke="#0A2238" stroke-width="0.128755"/>
<path d="M14.9165 27.836L14.9239 27.8634L14.9491 27.8765L16.2815 28.5651L14.9544 29.6556L14.0193 30.424L12.2292 28.2454L13.1643 27.477L14.5197 26.3633L14.9165 27.836Z" fill="black" stroke="#0A2238" stroke-width="0.128755"/>
<path d="M11.0213 29.235L11.9172 28.5L13.7057 30.6799L12.8098 31.4149L11.0213 29.235Z" fill="black" stroke="#0A2238" stroke-width="0.128755"/>
<path d="M9.75547 30.2823L10.6512 29.5471L12.44 31.7268L11.5443 32.462L9.75547 30.2823Z" fill="black" stroke="#0A2238" stroke-width="0.128755"/>
<path d="M8.48139 31.3199L9.37718 30.5848L11.1659 32.7645L10.2701 33.4996L8.48139 31.3199Z" fill="black" stroke="#0A2238" stroke-width="0.128755"/>
</svg>
