<svg width="244" height="244" viewBox="0 0 244 244" fill="none" xmlns="http://www.w3.org/2000/svg">
<path d="M116.042 0.526128C108.06 1.22281 103.9 1.70054 100.516 2.35741L98.7243 2.6958L98.7442 3.87021C98.7641 5.26358 99.5404 9.20482 99.9385 9.98113C100.277 10.6181 100.775 10.7773 102.128 10.6977L103.103 10.638L103.163 9.74226C103.203 9.24463 103.123 7.91098 103.004 6.77638C102.825 5.26358 102.825 4.68633 102.984 4.5868C103.103 4.50718 105.492 4.22851 108.299 3.96974C114.012 3.4522 113.812 3.4323 114.171 4.88538C114.489 6.25884 114.947 12.1508 114.947 14.9574V17.6845L114.31 17.784C113.952 17.8437 112.001 18.1224 109.971 18.4011C105.114 19.0778 99.7594 20.093 95.2807 21.148C92.8124 21.7451 91.5982 21.9641 91.5385 21.8049C91.4987 21.6854 90.6228 18.7593 89.5878 15.3157C88.5527 11.8721 87.5176 8.52804 87.2788 7.87117C86.8209 6.65695 86.2835 5.96026 85.8058 5.96026C84.6712 5.96026 73.7034 10.2598 69.7223 12.2503L68.3688 12.9271L68.7868 13.9821C69.2446 15.1366 71.474 19.3565 71.9716 19.9537C72.2702 20.3319 72.2901 20.3319 72.9669 19.9935C73.8825 19.5357 74.7385 18.6996 74.7385 18.2816C74.7385 18.1025 74.3403 17.0276 73.8626 15.893C73.365 14.7783 73.0266 13.7631 73.0863 13.6636C73.3849 13.166 80.9091 10.3991 82.9394 10.0408C83.6361 9.90151 83.6759 9.94132 84.0541 10.6778C84.7508 12.0314 87.1394 18.6996 87.8759 21.347L88.2541 22.7006L87.3783 23.2579C86.9006 23.5565 85.2086 24.3328 83.656 24.9897C82.0835 25.6267 78.4806 27.2987 75.6342 28.712C70.2001 31.3992 67.4332 32.6333 66.8361 32.6333C66.637 32.6333 66.2588 32.2949 65.9801 31.8769C65.7214 31.4788 63.8105 28.493 61.7403 25.2684C59.6702 22.0437 57.9185 19.3167 57.819 19.2172C57.4806 18.8589 53.3801 21.5063 47.9659 25.5669C44.7213 27.9954 42.89 29.5281 42.5118 30.1053C42.3128 30.4238 42.3526 30.6229 42.7706 31.2599C43.6663 32.5935 46.9109 36.2362 47.4284 36.475C47.8663 36.6741 47.9858 36.6144 48.782 35.7783C49.2597 35.2608 49.6578 34.6637 49.6578 34.4447C49.6578 34.2257 48.981 33.1509 48.145 32.0362C47.309 30.9215 46.7118 29.9262 46.8114 29.8466C47.2294 29.4684 53.7782 24.7707 54.6341 24.2333C55.1716 23.8949 55.7289 23.6759 55.8882 23.7357C56.0474 23.7954 56.6844 24.5319 57.3413 25.4077C59.073 27.7167 63.7906 34.803 63.7906 35.1016C63.7906 35.2608 62.7356 36.1366 61.4616 37.0722C56.9631 40.3167 47.309 48.7168 46.8313 49.7717C46.6919 50.0902 46.473 50.349 46.3535 50.349C45.9554 50.349 44.0843 48.9954 42.4123 47.5025C41.5365 46.7063 39.0284 44.4371 36.8587 42.4466L32.8976 38.8239L31.3649 40.6551C25.5724 47.5623 21.1933 53.4144 21.1933 54.2305C21.1933 54.8078 26.6871 58.3111 27.6028 58.3111C28.399 58.3111 29.3544 57.3557 29.3544 56.5594C29.3544 55.8628 28.8568 55.3054 27.2047 54.1509C25.5326 52.9765 25.4729 52.658 26.6274 50.986C27.8217 49.2343 29.9715 46.5869 31.3848 45.0741L32.4995 43.8798L33.1763 44.3575C34.6492 45.4324 39.0085 49.095 40.7004 50.6874C42.5715 52.4391 43.2284 53.3547 42.9497 53.7926C42.8701 53.9319 41.6559 55.5244 40.2824 57.3357C37.018 61.5955 34.8483 64.7007 32.2606 68.841C31.1061 70.6922 30.0312 72.3045 29.872 72.4239C29.5336 72.7026 29.1355 72.5235 20.7753 68.204C17.6502 66.5917 14.943 65.2779 14.7639 65.2779C14.525 65.2779 13.8881 66.3727 12.6539 68.841C10.4444 73.26 9.23023 76.0467 8.23496 79.0723C7.29942 81.859 7.25961 82.6552 7.95629 83.1131C8.63307 83.551 13.4103 85.1832 14.0672 85.1832C14.4056 85.1832 14.7639 84.9643 15.1222 84.5462C16.217 83.2524 16.1772 82.496 14.9828 81.9387C10.5838 79.8884 10.8226 80.1273 11.4198 78.4552C12.1563 76.3055 15.0625 69.6571 15.2416 69.6571C15.5601 69.6571 21.8701 72.4836 24.2587 73.6979C26.5478 74.8524 27.9611 75.8476 27.9611 76.2856C27.9611 76.405 27.0454 78.7936 25.9506 81.5804C23.7014 87.2136 22.2682 91.2344 21.5914 93.643C21.3525 94.5188 20.8947 95.8922 20.5563 96.6686C20.0189 97.9624 19.8994 98.1216 19.4416 98.1216C18.9241 98.1216 18.1876 97.9624 9.34966 95.9719C3.93543 94.7377 3.53732 94.678 3.39799 94.9169C2.97998 95.5738 0.69087 111.08 0.69087 113.17L0.69087 114.245H3.93543C7.25961 114.245 8.59326 114.066 8.87193 113.608C8.97146 113.469 9.05108 112.991 9.05108 112.533C9.05108 111.379 8.67288 111.12 6.76198 110.941C5.88614 110.861 4.93069 110.682 4.63211 110.543C3.65675 110.045 3.67666 108.771 4.79135 102.62C5.48804 98.878 5.48804 98.8581 6.40368 99.0373C11.0814 99.8335 18.5658 101.426 19.0236 101.724C19.2426 101.844 19.1829 102.919 18.7449 107.417C18.4265 110.562 18.108 115.419 18.0084 118.644C17.9089 121.789 17.7298 124.576 17.6302 124.854C17.471 125.253 17.272 125.372 16.3762 125.471C14.8236 125.651 7.43875 126.148 3.8359 126.307C2.12405 126.387 0.611249 126.526 0.471912 126.606C0.252954 126.725 0.272859 127.462 0.551533 130.408C0.989449 134.787 1.76575 140.779 2.24348 143.108C2.7013 145.397 2.88045 145.496 5.68709 145.038C6.82169 144.839 8.45392 144.501 9.30985 144.282L10.8824 143.844L10.7629 142.829C10.6833 142.272 10.4843 141.595 10.3051 141.336C9.98663 140.818 9.90701 140.818 5.94586 141.236C4.85107 141.356 4.69183 141.316 4.5923 140.998C4.1942 139.724 3.17903 130.189 3.41789 129.95C3.67666 129.711 17.5108 128.616 17.7298 128.816C17.7696 128.875 17.9885 130.507 18.2274 132.478C18.6255 136.001 19.4615 140.878 20.5762 146.193C21.3326 149.816 21.4322 150.811 21.1336 151.667C20.7952 152.662 19.8994 153.16 16.635 154.175C7.63781 157.001 6.80179 157.34 6.44349 158.116C6.14491 158.733 6.68235 160.624 8.43402 165.262C10.6037 170.955 12.2956 174.837 12.8729 175.314C13.0918 175.473 13.5895 175.334 15.0824 174.657C17.4312 173.602 18.2871 173.105 19.163 172.289C19.9393 171.572 19.9791 170.915 19.3421 169.96C18.7648 169.124 18.3468 169.124 16.3364 169.94C14.2464 170.796 13.689 170.875 13.3307 170.318C12.8132 169.502 11.5193 166.377 10.544 163.53L9.58852 160.744L10.0264 160.405C10.9023 159.689 19.8198 156.504 21.9099 156.165L22.7459 156.026L23.3431 157.081C23.6615 157.658 24.4976 159.43 25.1743 161.022C27.3838 166.158 29.7924 171.015 32.7782 176.29L33.3554 177.325L31.7033 178.4C30.7876 178.977 28.18 180.609 25.871 182.022C21.6909 184.59 19.9194 185.784 19.4615 186.342C19.2625 186.581 19.4018 186.939 20.2577 188.372C21.9298 191.159 27.5829 198.922 29.8919 201.589L30.4492 202.226L31.8824 201.131C33.654 199.778 36.0426 197.429 36.2218 196.832C36.381 196.354 35.9232 195.638 35.1071 195.02C34.4701 194.543 34.0123 194.702 31.8028 196.195L30.1507 197.329L29.6331 196.832C29.036 196.274 24.9952 190.96 23.8606 189.228C23.4227 188.531 23.1838 188.014 23.3032 187.934C30.9469 182.779 34.9478 180.131 35.0673 180.151C35.1469 180.151 36.3213 181.604 37.6549 183.376C40.6009 187.297 42.6711 189.805 46.5725 194.145C48.2047 195.976 49.7175 197.728 49.8967 198.026C50.2351 198.564 50.2351 198.564 49.4389 199.559C48.981 200.096 46.4531 202.803 43.8256 205.59C41.1782 208.377 38.9886 210.706 38.9488 210.785C38.8891 210.945 43.2284 214.926 45.7763 217.056C46.6521 217.792 48.4834 219.185 49.8569 220.161C51.2303 221.136 52.763 222.251 53.2806 222.649L54.2161 223.346L56.1071 220.499C57.1621 218.927 58.1375 217.314 58.2967 216.916C58.5754 216.259 58.5754 216.16 58.237 215.722C58.018 215.463 57.5403 215.085 57.1422 214.866C56.1668 214.348 55.8285 214.567 54.0768 216.976C52.7232 218.827 52.6038 218.947 52.2256 218.688C52.0066 218.529 50.0957 216.976 47.9659 215.244C45.5374 213.254 44.0843 211.94 44.0843 211.721C44.0843 210.785 45.8758 208.556 52.9621 200.674C53.1412 200.455 53.7185 200.833 56.0872 202.783C61.2825 207.063 63.5915 208.675 69.4636 212.179C70.9963 213.075 72.3896 213.95 72.5489 214.11C72.8076 214.348 72.3896 215.264 69.2844 221.435C66.7365 226.491 65.7015 228.74 65.6417 229.397L65.5223 230.293L67.2939 231.109C70.8171 232.741 80.9091 237.021 82.0437 237.359C82.402 237.458 82.5413 237.359 82.8598 236.722C83.3574 235.767 84.6314 231.985 84.9897 230.432C85.2484 229.297 85.2484 229.277 84.8105 229.098C83.9148 228.76 82.5015 228.64 82.2228 228.879C82.0636 229.019 81.6058 229.954 81.2077 230.989C80.8096 232.024 80.3318 233.039 80.1527 233.258C79.8143 233.657 79.7944 233.657 78.7991 233.298C77.4854 232.821 71.9716 230.074 70.6977 229.257C69.8019 228.68 69.7422 228.581 69.8418 228.023C70.1005 226.65 74.8977 217.573 75.9726 216.419L76.3707 216.001L77.983 216.697C82.9195 218.827 90.1053 221.395 96.2361 223.226C97.1717 223.485 98.0475 223.784 98.1669 223.883C98.3461 224.003 98.1072 225.416 97.1319 229.695C95.4797 236.881 95.2011 238.394 95.2807 239.688L95.3404 240.723L96.2361 240.982C99.202 241.877 105.094 242.634 109.991 242.773L114.091 242.893L114.23 239.489C114.41 235.189 114.33 234.871 113.016 234.871C111.424 234.871 110.747 235.767 110.628 238.056C110.528 239.967 110.429 240.385 110.09 240.504C109.772 240.623 101.352 239.369 100.595 239.071C99.1224 238.513 99.0627 237.259 100.217 231.427C101.113 226.929 101.551 225.276 101.869 225.077C102.267 224.819 104.139 224.898 107.363 225.316C110.847 225.754 115.883 226.172 121.834 226.53L125.835 226.769L125.955 233.458C126.074 239.509 126.393 243.39 126.771 243.768C127.069 244.067 140.704 242.435 143.869 241.718L145.203 241.4V240.245C145.203 238.931 144.546 235.408 144.068 234.234L143.75 233.438L142.536 233.577C140.685 233.776 140.685 233.776 141.043 237.001C141.222 238.513 141.361 239.767 141.341 239.767C141.262 239.887 135.927 240.285 133.24 240.385L129.936 240.504L129.816 240.026C129.597 239.17 128.781 226.331 128.94 226.192C128.96 226.172 130.453 226.013 132.265 225.834C137.181 225.356 141.68 224.54 150.179 222.629C151.314 222.37 152.329 222.211 152.409 222.291C152.568 222.47 153.265 224.719 155.514 232.283C157.226 238.016 157.266 238.155 157.743 238.095C159.475 237.876 164.014 236.284 170.941 233.438C175.618 231.547 175.539 231.586 175.379 230.83C175.22 230.054 173.528 226.67 172.553 225.217C171.757 223.983 171.478 223.903 170.264 224.54C169.468 224.938 169.448 224.978 169.547 225.774C169.587 226.232 169.906 227.406 170.264 228.382C170.881 230.094 170.901 230.173 170.542 230.512C170.184 230.87 163.994 233.338 161.943 233.955C160.948 234.254 160.829 234.254 160.51 233.955C159.694 233.219 157.087 226.152 156.41 222.828C156.071 221.156 156.071 221.096 156.43 220.838C156.629 220.678 158.181 220.002 159.893 219.325C161.625 218.648 166.263 216.458 170.224 214.448L177.43 210.805L178.465 212.537C179.38 214.07 186.367 225.097 186.526 225.296C186.745 225.535 200.639 215.364 201.236 214.528C201.654 213.911 201.615 213.393 201.077 212.557C200.48 211.562 196.897 207.421 196.658 207.421C196.539 207.402 195.862 207.979 195.165 208.695L193.871 209.989L195.743 211.86C196.758 212.895 197.574 213.831 197.534 213.95C197.355 214.428 189.95 220.002 188.716 220.559C188.099 220.857 188.417 221.176 185.531 217.155C183.242 213.95 180.236 209.432 180.236 209.213C180.236 208.974 181.431 207.939 184.317 205.71C187.979 202.863 190.925 200.395 193.951 197.628C195.305 196.374 196.857 194.941 197.434 194.443L198.45 193.528L203.884 198.564C206.889 201.33 209.736 203.799 210.214 204.057C211.03 204.475 211.129 204.495 211.627 204.217C212.443 203.759 220.982 192.95 222.296 190.701L222.654 190.104L221.898 189.268C221.082 188.352 219.33 187.078 217.599 186.103C216.563 185.526 216.404 185.486 215.867 185.705C215.21 185.983 214.075 187.158 214.075 187.576C214.075 187.914 214.732 188.511 216.364 189.626C217.977 190.761 218.176 191.139 217.638 192.194C217.34 192.811 212.184 199.619 211.488 200.315C211.388 200.415 210.89 200.096 210.353 199.599C209.835 199.101 207.427 197.011 205.018 194.961C202.61 192.891 200.619 191.139 200.58 191.059C200.54 190.98 201.674 189.447 203.068 187.655C207.208 182.401 208.104 181.127 212.881 173.642C213.916 172.03 213.996 171.95 214.573 172.05C214.891 172.109 218.315 173.722 222.137 175.653C225.979 177.564 229.243 179.136 229.422 179.136C229.621 179.136 230.019 178.559 230.497 177.603C232.328 173.861 235.553 166.218 236.588 163.132L237.046 161.759L236.509 161.341C235.872 160.823 233.762 159.987 231.672 159.41C229.86 158.912 229.482 159.012 228.706 160.206C227.85 161.48 228.029 161.818 230 162.555C232.786 163.63 233.105 163.829 233.025 164.506C232.926 165.382 231.532 168.726 230.059 171.652C228.805 174.08 228.726 174.2 228.228 174.1C227.511 173.961 221.639 171.293 218.415 169.641L215.887 168.367L216.305 167.332C218.514 161.818 220.485 156.563 221.381 153.757C224.068 145.456 223.67 146.392 224.446 146.332C225.182 146.272 227.85 146.75 234.677 148.163C239.793 149.218 240.49 149.278 240.728 148.621C241.246 147.288 242.54 139.564 243.037 134.946C243.197 133.354 243.396 131.682 243.455 131.224C243.575 130.269 243.754 130.348 240.35 129.871C237.763 129.512 235.951 129.492 235.493 129.831C235.016 130.169 234.996 132.737 235.454 133.075C235.633 133.195 236.727 133.354 237.882 133.414C239.036 133.473 240.091 133.613 240.191 133.712C240.35 133.871 240.33 134.568 240.171 136.081C239.833 138.987 239.216 143.187 238.937 144.362L238.718 145.337L237.782 145.198C235.414 144.859 226.874 142.789 225.163 142.132C224.725 141.973 224.645 141.834 224.725 141.475C225.282 139.047 225.979 130.368 226.118 123.998L226.237 118.923L227.372 118.783C229.721 118.525 235.036 118.206 239.415 118.087L243.933 117.967V117.39C243.933 116.554 242.799 106.661 242.321 103.397C241.664 98.8382 241.624 98.7188 240.49 98.7188C239.713 98.7188 236.309 99.4155 234.677 99.933L233.324 100.351L233.443 101.207C233.622 102.421 233.981 103.098 234.518 103.217C234.797 103.297 235.752 103.257 236.688 103.138C238.718 102.859 239.236 103.018 239.634 103.994C239.932 104.71 240.748 110.901 240.748 112.473C240.748 113.588 240.35 114.165 239.395 114.444C238.718 114.643 232.01 115.121 228.009 115.28L226.317 115.34L225.78 111.06C225.083 105.506 224.605 102.74 223.431 97.5245C222.077 91.533 221.998 92.2098 224.048 91.314C225.003 90.9159 228.128 89.861 230.995 88.9652C233.861 88.0695 236.608 87.1737 237.086 86.9747C237.882 86.6164 237.962 86.5368 237.962 85.8799C237.962 84.9244 236.827 81.4609 235.036 76.9225C233.722 73.6581 231.492 68.5026 231.293 68.3035C231.174 68.1841 224.924 71.4088 224.486 71.8467C223.869 72.404 223.908 72.8818 224.645 74.1557L225.242 75.2306L225.879 74.9519C229.701 73.3396 229.86 73.2998 230.418 73.8571C231.413 74.8524 234.598 82.7548 234.299 83.5112C234.14 83.9292 231.99 84.8448 227.81 86.2581C223.212 87.8306 221.341 88.2884 220.963 87.9899C220.823 87.8704 220.087 86.2183 219.35 84.3273C218.574 82.3567 216.504 77.9377 214.473 73.9168L210.95 66.9301L214.453 64.6808C216.384 63.4268 219.43 61.5358 221.241 60.441C223.053 59.3462 224.725 58.331 224.963 58.1917L225.421 57.913L224.386 56.2609C221.162 51.1054 214.812 42.785 213.896 42.4864C213.677 42.4267 213.219 42.5063 212.881 42.6855C212.264 43.004 207.825 46.6466 207.327 47.2438C207.108 47.5025 207.228 47.7215 208.323 48.8561C208.999 49.5727 209.636 50.1499 209.716 50.1499C209.816 50.1499 210.592 49.5727 211.468 48.876C213.339 47.3632 213.737 47.1243 214.155 47.2836C214.772 47.5225 220.644 54.9073 220.644 55.4447C220.644 56.2808 210.194 63.6855 209.039 63.6855C208.701 63.6855 208.144 63.0286 206.073 60.1623C203.764 56.9575 201.356 54.2106 195.822 48.3983L193.414 45.8504L197.494 41.4912C199.724 39.0826 202.431 36.1964 203.486 35.0618C204.541 33.9272 205.297 32.9518 205.198 32.8722C205.078 32.7926 203.963 31.8769 202.709 30.8219C201.475 29.7869 198.609 27.4978 196.36 25.766C194.11 24.0342 191.781 22.2229 191.184 21.7451L190.089 20.8892L189.532 21.5262C187.402 23.9745 185.412 27.02 185.412 27.8162C185.412 28.294 186.725 29.4485 187.283 29.4485C187.661 29.4485 188.975 28.2143 190.627 26.2835L191.543 25.2286L196.021 28.8712C198.489 30.8817 200.5 32.5935 200.48 32.6731C200.46 32.7527 198.649 34.8428 196.459 37.331C194.27 39.7992 192.16 42.2077 191.761 42.6457L191.025 43.4817L189.034 41.949C184.357 38.3461 176.494 32.9717 172.175 30.384L171.259 29.8466L171.637 29.1897C171.856 28.8513 173.707 25.4873 175.758 21.7252C179.241 15.3157 179.46 14.8778 179.102 14.6191C178.047 13.8427 171.737 10.9167 167.298 9.16501C162.063 7.07496 162.003 7.05505 161.446 7.41335C160.928 7.77164 160.232 9.38397 159.216 12.7281C158.46 15.1565 158.44 15.1167 160.351 15.5148C161.525 15.7736 161.565 15.7537 162.003 15.2958C162.262 15.0371 162.819 13.9622 163.217 12.9271C163.635 11.892 164.033 10.9764 164.093 10.8968C164.352 10.5982 172.951 14.3603 174.026 15.2361L174.484 15.6143L172.613 19.4958C171.578 21.6257 170.204 24.3527 169.567 25.5669C168.452 27.6371 168.333 27.7565 167.776 27.7366C167.437 27.7167 165.069 26.8807 162.501 25.8655C158.4 24.2333 153.782 22.6409 149.284 21.2873C147.552 20.7698 146.258 20.1527 146.139 19.8143C146.079 19.6551 146.119 19.1973 146.218 18.7793C146.935 15.6342 149.204 5.06453 149.304 4.34794L149.423 3.4522L148.448 3.23324C146.358 2.73561 137.301 1.32234 132.165 0.68537C130.374 0.466412 129.896 1.42186 129.816 5.48254C129.777 8.18965 129.956 8.78681 130.931 9.14511C132.583 9.72236 132.842 9.42378 133.34 6.51761C133.698 4.38775 133.897 3.96974 134.613 3.94983C136.485 3.85031 141.72 4.60671 143.611 5.22377L144.905 5.66169L144.845 6.65695C144.765 8.50814 142.536 19.1973 142.217 19.3963C142.118 19.456 141.242 19.3764 140.286 19.2172C137.619 18.7593 135.31 18.5404 128.682 18.1025C122.491 17.6845 119.227 17.2864 118.868 16.9281C118.51 16.5698 118.371 14.4399 118.212 7.29392L118.072 0.386791L117.455 0.426602C117.117 0.446507 116.48 0.486318 116.042 0.526128ZM131.668 20.7897C144.327 22.0835 155.494 25.2286 166.601 30.6229C171.458 32.9916 173.946 34.4049 178.345 37.3111C202.57 53.3149 218.912 79.4107 222.834 108.373C223.889 116.235 223.908 126.865 222.834 135.344C219.728 160.166 207.686 182.381 188.198 199.26C173.07 212.358 154.917 220.34 133.957 223.107C110.667 226.192 85.0494 219.902 64.6863 206.128C55.8285 200.136 43.2085 187.377 37.2369 178.34C20.7554 153.438 15.998 122.187 24.3582 93.5235C31.0663 70.4931 45.6967 50.5879 65.7214 37.2314C70.8768 33.8077 80.1328 29.1499 87.3783 26.3632C95.1015 23.3774 105.651 21.1679 115.345 20.511C119.008 20.2522 127.905 20.4115 131.668 20.7897Z" fill="#460808"/>
</svg>
